# xmcd
#
# Track frame offsets: 
#        150
#        29941
#        51602
#        69352
#        92799
#        130339
#        194029
#        217570
#        229680
#        266746
#        303012
#
# Disc length: 4385 seconds
#
# Revision: 0
# Processed by: cddbd v1.5.2PL0 Copyright (c) Steve Scherf et al.
# Submitted via: ExactAudioCopy v0.99pb4
#
DISCID=a2111f0b
DTITLE=Eric Burdon - Mirage
DYEAR=1973
DGENRE=Blues
TTITLE0=Dragon Lady
TTITLE1=Jim Crow
TTITLE2=Ghetto Child
TTITLE3=Mind Arc
TTITLE4=River Of Blood
TTITLE5=Driftin'/Geronimo's Last Stand
TTITLE6=Highway Mover
TTITLE7=Cum
TTITLE8=First Sight
TTITLE9=Mirage
TTITLE10=Stole My Heart Away (First Sight)
EXTD=
EXTT0=
EXTT1=
EXTT2=
EXTT3=
EXTT4=
EXTT5=
EXTT6=
EXTT7=
EXTT8=
EXTT9=
EXTT10=
PLAYORDER=
